# xmcd CD database file
#
# Track frame offsets:
#	150
#	11857
#	26962
#	39325
#	52090
#	68932
#	77872
#	88817
#	100832
#	114805
#	125400
#	133347
#	144835
#	157015
#	168615
#	183395
#
# Disc length: 2617 seconds
#
# Revision: 5
# Processed by: cddbd v1.5.2PL0 Copyright (c) Steve Scherf et al.
# Submitted via: CDex 1.51
#
DISCID=e20a3710
DTITLE=Various Artist - Country and Western - CD 3/3
DYEAR=1999
DGENRE=Country
TTITLE0=Donna Fargo - The Happiest Girl In The Whole U.S.A.
TTITLE1=Kenny Rogers - For The Good Times
TTITLE2=Johnny Paycheck - I'm Not Looking Back Anymore
TTITLE3=Bobby Bare - Tender Years
TTITLE4=Willie Nelson - I Let My Mind Wonder
TTITLE5=Waylon Jennings - Mean Old Greyhound Bus
TTITLE6=Patsy Cline - I Cried All The Way To The Altar
TTITLE7=Don Williams - On Her Way To Be A Woman
TTITLE8=Billie Jo Spears - Mr. Walker, It's All Over
TTITLE9=Johnny Cash - Cold, Clod Heart
TTITLE10=Freddy Fender - Wasted Days And Wasted Nights
TTITLE11=Oak Ridge Boys - No One Cared As Much
TTITLE12=Dolly Parton - Two Little Orphans
TTITLE13=Joe Watson - Tender Years
TTITLE14=Willie Nelson - And So Will You My Love
TTITLE15=Kenny Rogers - Sleep Comes Easy
EXTD=YEAR: 1999
EXTT0=
EXTT1=
EXTT2=
EXTT3=
EXTT4=
EXTT5=
EXTT6=
EXTT7=
EXTT8=
EXTT9=
EXTT10=
EXTT11=
EXTT12=
EXTT13=
EXTT14=
EXTT15=
PLAYORDER=
